#N canvas 860 939 1094 478 10;
#X declare -lib mrpeach;
#N canvas -13 -13 3000 1836 inside 0;
#X obj 113 132 unpackOSC;
#X obj 47 41 import mrpeach;
#X obj 176 226 print;
#X obj 175 204 gate;
#X obj 182 155 tgl 15 0 empty empty empty 17 7 0 10 -262144 -1 -1 1
1;
#X obj 237 47 inlet;
#X obj 164 38 inlet;
#X obj 114 92 udpreceive;
#X msg 147 69 port \$1;
#X obj 38 236 routeOSC /BlackLegend;
#X obj 244 238 routeOSC /1 /2 /3 /4 /5;
#X obj 244 272 print 1;
#X obj 315 273 print 2;
#X obj 375 275 print 3;
#X obj 438 271 print 4;
#X obj 508 271 print 5;
#X obj 252 336 routeOSC /1 /2 /3 /4 /5;
#X obj 244 214 gate;
#X obj 309 54 inlet;
#X obj 41 322 gate;
#X obj 306 115 tgl 15 0 empty empty empty 17 7 0 10 -262144 -1 -1 1
1;
#X obj 123 638 dac~;
#N canvas 347 492 806 426 singleBeep 0;
#X obj 80 155 osc~;
#X obj 90 89 mtof;
#X obj 199 215 line~;
#X obj 84 237 *~;
#X obj 96 45 inlet;
#X obj 216 91 bng 15 250 50 0 empty empty empty 17 7 0 10 -262144 -1
-1;
#X obj 320 135 delay 100;
#X msg 286 180 0 200;
#X msg 209 132 1 20;
#X obj 90 295 outlet~;
#X connect 0 0 3 0;
#X connect 1 0 0 0;
#X connect 2 0 3 1;
#X connect 3 0 9 0;
#X connect 4 0 1 0;
#X connect 4 0 5 0;
#X connect 5 0 8 0;
#X connect 5 0 6 0;
#X connect 6 0 7 0;
#X connect 7 0 2 0;
#X connect 8 0 2 0;
#X restore 119 526 pd singleBeep;
#X msg 119 469 60;
#X obj 136 574 *~ 0.7;
#X msg 218 470 64;
#X msg 315 465 67;
#X obj 114 420 bng 15 250 50 0 empty empty empty 17 7 0 10 -262144
-1 -1;
#X obj 218 416 bng 15 250 50 0 empty empty empty 17 7 0 10 -262144
-1 -1;
#X obj 312 419 bng 15 250 50 0 empty empty empty 17 7 0 10 -262144
-1 -1;
#X obj 206 626 loadbang;
#X msg 206 669 1;
#X obj 206 647 delay 2000;
#N canvas 650 97 450 300 sendosc 0;
#X obj 161 150 packOSC;
#X obj 173 208 udpsend;
#X msg 326 194 disconnect;
#X obj 245 132 loadbang;
#X obj 228 157 delay 1000;
#X msg 191 180 connect localhost 1234;
#X msg 151 75 /BlackLegend/1 123;
#X connect 0 0 1 0;
#X connect 2 0 1 0;
#X connect 3 0 4 0;
#X connect 4 0 5 0;
#X connect 5 0 1 0;
#X connect 6 0 0 0;
#X restore 484 132 pd sendosc;
#N canvas 47 471 806 426 Chordup 0;
#X obj 90 257 osc~;
#X obj 106 178 mtof;
#X obj 441 195 line~;
#X obj 92 290 *~;
#X obj 94 18 inlet;
#X obj 458 71 bng 15 250 50 0 empty empty empty 17 7 0 10 -262144 -1
-1;
#X msg 528 160 0 200;
#X obj 90 320 outlet~;
#X obj 144 93 delay 100;
#X obj 224 90 delay 100;
#X obj 104 94 bng 15 250 50 0 empty empty empty 17 7 0 10 -262144 -1
-1;
#X msg 100 128 60;
#X msg 143 126 64;
#X msg 225 126 67;
#X obj 300 94 delay 100;
#X obj 100 230 line~;
#X msg 102 205 \$1 1;
#X msg 451 112 1 10;
#X obj 372 95 delay 100;
#X obj 562 115 delay 500;
#X msg 373 131 76;
#X msg 301 130 72;
#X connect 0 0 3 0;
#X connect 1 0 16 0;
#X connect 2 0 3 1;
#X connect 3 0 7 0;
#X connect 4 0 10 0;
#X connect 5 0 17 0;
#X connect 5 0 19 0;
#X connect 6 0 2 0;
#X connect 8 0 12 0;
#X connect 8 0 9 0;
#X connect 9 0 13 0;
#X connect 9 0 14 0;
#X connect 10 0 11 0;
#X connect 10 0 8 0;
#X connect 10 0 5 0;
#X connect 11 0 1 0;
#X connect 12 0 1 0;
#X connect 13 0 1 0;
#X connect 14 0 21 0;
#X connect 14 0 18 0;
#X connect 15 0 0 0;
#X connect 16 0 15 0;
#X connect 17 0 2 0;
#X connect 18 0 20 0;
#X connect 19 0 6 0;
#X connect 20 0 1 0;
#X connect 21 0 1 0;
#X restore 218 527 pd Chordup;
#N canvas 47 471 806 426 Chorddown 0;
#X obj 90 257 osc~;
#X obj 106 178 mtof;
#X obj 441 195 line~;
#X obj 92 290 *~;
#X obj 94 18 inlet;
#X obj 458 71 bng 15 250 50 0 empty empty empty 17 7 0 10 -262144 -1
-1;
#X msg 528 160 0 200;
#X obj 90 320 outlet~;
#X obj 144 93 delay 100;
#X obj 224 90 delay 100;
#X obj 104 94 bng 15 250 50 0 empty empty empty 17 7 0 10 -262144 -1
-1;
#X obj 300 94 delay 100;
#X obj 100 230 line~;
#X msg 102 205 \$1 1;
#X msg 451 112 1 10;
#X obj 372 95 delay 100;
#X obj 562 115 delay 500;
#X msg 100 128 72;
#X msg 143 126 67;
#X msg 225 126 64;
#X msg 301 130 60;
#X msg 373 131 55;
#X connect 0 0 3 0;
#X connect 1 0 13 0;
#X connect 2 0 3 1;
#X connect 3 0 7 0;
#X connect 4 0 10 0;
#X connect 5 0 14 0;
#X connect 5 0 16 0;
#X connect 6 0 2 0;
#X connect 8 0 18 0;
#X connect 8 0 9 0;
#X connect 9 0 19 0;
#X connect 9 0 11 0;
#X connect 10 0 17 0;
#X connect 10 0 8 0;
#X connect 10 0 5 0;
#X connect 11 0 20 0;
#X connect 11 0 15 0;
#X connect 12 0 0 0;
#X connect 13 0 12 0;
#X connect 14 0 2 0;
#X connect 15 0 21 0;
#X connect 16 0 6 0;
#X connect 17 0 1 0;
#X connect 18 0 1 0;
#X connect 19 0 1 0;
#X connect 20 0 1 0;
#X connect 21 0 1 0;
#X restore 317 525 pd Chorddown;
#N canvas 293 381 1329 558 Chorddown 0;
#X obj 630 451 outlet~;
#X obj 1053 306 line~;
#X obj 631 405 *~;
#X obj 861 76 inlet;
#X obj 1070 182 bng 15 250 50 0 empty empty empty 17 7 0 10 -262144
-1 -1;
#X msg 1140 271 0 200;
#X obj 1174 226 delay 500;
#X obj 726 196 line~;
#X msg 731 162 \$1 10;
#X obj 820 121 hsl 128 15 0.5 300 0 0 empty empty empty -2 -8 0 10
-262144 -1 -1 0 1;
#X msg 1063 223 1 50;
#X msg 693 306 1;
#X obj 727 224 osc~ 1;
#X obj 618 297 osc~ 261;
#X obj 725 250 expr~ (261)+($v1*$f2);
#X floatatom 895 201 5 0 0 0 - - -;
#X obj 941 74 maxlib/scale 0 10 0.5 100.5;
#X obj 594 333 *~ 1;
#X connect 1 0 2 1;
#X connect 2 0 0 0;
#X connect 3 0 16 0;
#X connect 4 0 10 0;
#X connect 4 0 6 0;
#X connect 5 0 1 0;
#X connect 6 0 5 0;
#X connect 7 0 12 0;
#X connect 8 0 7 0;
#X connect 9 0 8 0;
#X connect 9 0 4 0;
#X connect 9 0 14 1;
#X connect 9 0 15 0;
#X connect 10 0 1 0;
#X connect 11 0 17 1;
#X connect 12 0 14 0;
#X connect 13 0 17 0;
#X connect 14 0 13 0;
#X connect 16 0 9 0;
#X connect 17 0 2 0;
#X restore 426 528 pd Chorddown;
#N canvas 134 393 1491 571 Chorddown 0;
#X obj 630 451 outlet~;
#X obj 1053 306 line~;
#X obj 631 405 *~;
#X obj 935 37 inlet;
#X obj 1070 182 bng 15 250 50 0 empty empty empty 17 7 0 10 -262144
-1 -1;
#X obj 820 121 hsl 128 15 60 111 0 0 empty empty empty -2 -8 0 10 -262144
-1 -1 0 1;
#X obj 468 225 noise~;
#X obj 515 226 mtof;
#X msg 1063 223 1 10;
#X obj 1174 226 delay 10;
#X msg 1140 271 0 1000;
#X obj 503 379 lop~;
#X obj 931 64 maxlib/scale 0 10 60 110;
#X connect 1 0 2 1;
#X connect 2 0 0 0;
#X connect 3 0 12 0;
#X connect 4 0 8 0;
#X connect 4 0 9 0;
#X connect 5 0 4 0;
#X connect 5 0 7 0;
#X connect 6 0 11 0;
#X connect 7 0 11 1;
#X connect 8 0 1 0;
#X connect 9 0 10 0;
#X connect 10 0 1 0;
#X connect 11 0 2 0;
#X connect 12 0 5 0;
#X restore 532 531 pd Chorddown;
#X obj 460 380 vsl 15 128 0 10 0 0 empty empty empty 0 -9 0 10 -262144
-1 -1 0 1;
#X obj 549 372 vsl 15 128 0 10 0 0 empty empty empty 0 -9 0 10 -262144
-1 -1 0 1;
#X connect 0 0 3 1;
#X connect 0 0 9 0;
#X connect 0 0 17 1;
#X connect 3 0 2 0;
#X connect 4 0 3 0;
#X connect 4 0 17 0;
#X connect 5 0 4 0;
#X connect 6 0 8 0;
#X connect 7 0 0 0;
#X connect 8 0 7 0;
#X connect 9 0 19 1;
#X connect 10 0 11 0;
#X connect 10 1 12 0;
#X connect 10 2 13 0;
#X connect 10 3 14 0;
#X connect 10 4 15 0;
#X connect 16 0 27 0;
#X connect 16 1 28 0;
#X connect 16 2 29 0;
#X connect 16 3 36 0;
#X connect 16 4 37 0;
#X connect 17 0 10 0;
#X connect 18 0 20 0;
#X connect 19 0 16 0;
#X connect 20 0 19 0;
#X connect 22 0 24 0;
#X connect 23 0 22 0;
#X connect 24 0 21 0;
#X connect 24 0 21 1;
#X connect 25 0 34 0;
#X connect 26 0 35 0;
#X connect 27 0 23 0;
#X connect 28 0 25 0;
#X connect 29 0 26 0;
#X connect 30 0 32 0;
#X connect 31 0 21 0;
#X connect 32 0 31 0;
#X connect 34 0 24 0;
#X connect 35 0 24 0;
#X connect 36 0 24 0;
#X connect 37 0 24 0;
#X connect 38 0 36 0;
#X connect 39 0 37 0;
#X restore 70 120 pd inside;
#X obj 113 68 tgl 40 0 empty empty empty 17 7 0 10 -262144 -1 -1 1
1;
#X floatatom 63 78 5 0 0 0 - - -;
#X text 62 53 Port #;
#X text 114 48 Print;
#X obj 179 68 tgl 40 0 empty empty empty 17 7 0 10 -262144 -1 -1 1
1;
#X text 180 48 Sound on/off;
#X connect 1 0 0 1;
#X connect 2 0 0 0;
#X connect 5 0 0 2;
